<?xml version="1.0" encoding="UTF-8" standalone="no"?>
<!DOCTYPE svg PUBLIC "-//W3C//DTD SVG 1.1//EN"
 "http://www.w3.org/Graphics/SVG/1.1/DTD/svg11.dtd">
<!-- Generated by graphviz version 14.1.1 (20251213.1925)
 -->
<!-- Title: G Pages: 1 -->
<svg width="597pt" height="234pt"
 viewBox="0.00 0.00 597.00 234.00" xmlns="http://www.w3.org/2000/svg" xmlns:xlink="http://www.w3.org/1999/xlink">
<g id="graph0" class="graph" transform="scale(1 1) rotate(0) translate(4 230.25)">
<title>G</title><style>.edge>path:hover{stroke-width:8}</style>
<polygon fill="white" stroke="none" points="-4,4 -4,-230.25 592.81,-230.25 592.81,4 -4,4"/>
<!-- Main_py -->
<g id="node1" class="node">
<title>Main_py</title><style>.edge>path:hover{stroke-width:8}</style>
<ellipse fill="#854747" stroke="black" cx="184.84" cy="-18" rx="30.37" ry="18"/>
<text xml:space="preserve" text-anchor="middle" x="184.84" y="-14.5" font-family="Helvetica,sans-Serif" font-size="10.00" fill="#ffffff">Main.py</text>
</g>
<!-- SOURCES -->
<g id="node2" class="node">
<title>SOURCES</title><style>.edge>path:hover{stroke-width:8}</style>
<ellipse fill="#22e7e7" stroke="black" cx="39.84" cy="-131.63" rx="39.84" ry="18"/>
<text xml:space="preserve" text-anchor="middle" x="39.84" y="-128.13" font-family="Helvetica,sans-Serif" font-size="10.00" fill="#000000">SOURCES</text>
</g>
<!-- SOURCES&#45;&gt;Main_py -->
<g id="edge1" class="edge">
<title>SOURCES&#45;&gt;Main_py</title><style>.edge>path:hover{stroke-width:8}</style>
<path fill="none" stroke="black" d="M184.84,-72C181.02,-64.54 179.92,-55.68 180.08,-47.36"/>
<polygon fill="#22e7e7" stroke="black" points="183.55,-47.92 180.89,-37.67 176.57,-47.35 183.55,-47.92"/>
<path fill="none" stroke="black" d="M68.98,-118.93C77.03,-115.71 85.77,-112.21 93.84,-109 134.25,-92.91 204.65,-111.72 184.84,-73"/>
</g>
<!-- SOURCES_GMAT_exec -->
<g id="node3" class="node">
<title>SOURCES_GMAT_exec</title><style>.edge>path:hover{stroke-width:8}</style>
<ellipse fill="#49acac" stroke="black" cx="184.84" cy="-131.63" rx="49.5" ry="22.63"/>
<text xml:space="preserve" text-anchor="middle" x="184.84" y="-134.13" font-family="Helvetica,sans-Serif" font-size="10.00" fill="#000000">SOURCES.</text>
<text xml:space="preserve" text-anchor="middle" x="184.84" y="-122.13" font-family="Helvetica,sans-Serif" font-size="10.00" fill="#000000">GMAT_exec</text>
</g>
<!-- SOURCES_GMAT_exec&#45;&gt;Main_py -->
<g id="edge2" class="edge">
<title>SOURCES_GMAT_exec&#45;&gt;Main_py</title><style>.edge>path:hover{stroke-width:8}</style>
<path fill="none" stroke="black" d="M189.41,-108.72C190.66,-97.46 190.4,-83.87 184.84,-73"/>
</g>
<!-- SOURCES_GUI -->
<g id="node4" class="node">
<title>SOURCES_GUI</title><style>.edge>path:hover{stroke-width:8}</style>
<ellipse fill="#49acac" stroke="black" cx="304.84" cy="-131.63" rx="52.47" ry="18"/>
<text xml:space="preserve" text-anchor="middle" x="304.84" y="-128.13" font-family="Helvetica,sans-Serif" font-size="10.00" fill="#000000">SOURCES.GUI</text>
</g>
<!-- SOURCES_GUI&#45;&gt;Main_py -->
<g id="edge3" class="edge">
<title>SOURCES_GUI&#45;&gt;Main_py</title><style>.edge>path:hover{stroke-width:8}</style>
<path fill="none" stroke="black" d="M267.97,-118.46C235.82,-106.94 193.05,-89.05 184.84,-73"/>
</g>
<!-- SOURCES_plot_results -->
<g id="node5" class="node">
<title>SOURCES_plot_results</title><style>.edge>path:hover{stroke-width:8}</style>
<ellipse fill="#49acac" stroke="black" cx="423.84" cy="-131.63" rx="48.97" ry="22.63"/>
<text xml:space="preserve" text-anchor="middle" x="423.84" y="-134.13" font-family="Helvetica,sans-Serif" font-size="10.00" fill="#000000">SOURCES.</text>
<text xml:space="preserve" text-anchor="middle" x="423.84" y="-122.13" font-family="Helvetica,sans-Serif" font-size="10.00" fill="#000000">plot_results</text>
</g>
<!-- SOURCES_plot_results&#45;&gt;Main_py -->
<g id="edge4" class="edge">
<title>SOURCES_plot_results&#45;&gt;Main_py</title><style>.edge>path:hover{stroke-width:8}</style>
<path fill="none" stroke="black" d="M387.63,-116.11C380.47,-113.53 372.97,-111.03 365.84,-109 326.39,-97.8 203.52,-109.51 184.84,-73"/>
</g>
<!-- SOURCES_Transpiler -->
<g id="node6" class="node">
<title>SOURCES_Transpiler</title><style>.edge>path:hover{stroke-width:8}</style>
<ellipse fill="#49acac" stroke="black" cx="539.84" cy="-131.63" rx="48.97" ry="22.63"/>
<text xml:space="preserve" text-anchor="middle" x="539.84" y="-134.13" font-family="Helvetica,sans-Serif" font-size="10.00" fill="#000000">SOURCES.</text>
<text xml:space="preserve" text-anchor="middle" x="539.84" y="-122.13" font-family="Helvetica,sans-Serif" font-size="10.00" fill="#000000">Transpiler</text>
</g>
<!-- SOURCES_Transpiler&#45;&gt;Main_py -->
<g id="edge5" class="edge">
<title>SOURCES_Transpiler&#45;&gt;Main_py</title><style>.edge>path:hover{stroke-width:8}</style>
<path fill="none" stroke="black" d="M504.05,-115.78C496.8,-113.2 489.15,-110.78 481.84,-109 417.24,-93.28 215.13,-132.18 184.84,-73"/>
</g>
<!-- SOURCES_utils -->
<g id="node7" class="node">
<title>SOURCES_utils</title><style>.edge>path:hover{stroke-width:8}</style>
<ellipse fill="#22e7e7" stroke="black" cx="304.84" cy="-208.25" rx="52.47" ry="18"/>
<text xml:space="preserve" text-anchor="middle" x="304.84" y="-204.75" font-family="Helvetica,sans-Serif" font-size="10.00" fill="#000000">SOURCES.utils</text>
</g>
<!-- SOURCES_utils&#45;&gt;Main_py -->
<g id="edge6" class="edge">
<title>SOURCES_utils&#45;&gt;Main_py</title><style>.edge>path:hover{stroke-width:8}</style>
<path fill="none" stroke="black" d="M258.09,-199.77C210.83,-191.14 142.59,-175.39 126.84,-154.25 114.82,-138.13 117.06,-126.58 126.84,-109 141.59,-82.49 198.66,-100.01 184.84,-73"/>
</g>
<!-- SOURCES_utils&#45;&gt;SOURCES_GMAT_exec -->
<g id="edge7" class="edge">
<title>SOURCES_utils&#45;&gt;SOURCES_GMAT_exec</title><style>.edge>path:hover{stroke-width:8}</style>
<path fill="none" stroke="black" d="M280.27,-191.97C263.87,-181.78 241.99,-168.17 223.31,-156.55"/>
<polygon fill="#22e7e7" stroke="black" points="225.23,-153.62 214.89,-151.31 221.53,-159.57 225.23,-153.62"/>
</g>
<!-- SOURCES_utils&#45;&gt;SOURCES_GUI -->
<g id="edge8" class="edge">
<title>SOURCES_utils&#45;&gt;SOURCES_GUI</title><style>.edge>path:hover{stroke-width:8}</style>
<path fill="none" stroke="black" d="M304.84,-189.95C304.84,-181.53 304.84,-171.19 304.84,-161.61"/>
<polygon fill="#22e7e7" stroke="black" points="308.34,-161.61 304.84,-151.61 301.34,-161.61 308.34,-161.61"/>
</g>
<!-- SOURCES_utils&#45;&gt;SOURCES_plot_results -->
<g id="edge9" class="edge">
<title>SOURCES_utils&#45;&gt;SOURCES_plot_results</title><style>.edge>path:hover{stroke-width:8}</style>
<path fill="none" stroke="black" d="M329.21,-191.97C345.46,-181.78 367.17,-168.17 385.69,-156.55"/>
<polygon fill="#22e7e7" stroke="black" points="387.42,-159.6 394.03,-151.32 383.7,-153.67 387.42,-159.6"/>
</g>
<!-- SOURCES_utils&#45;&gt;SOURCES_Transpiler -->
<g id="edge10" class="edge">
<title>SOURCES_utils&#45;&gt;SOURCES_Transpiler</title><style>.edge>path:hover{stroke-width:8}</style>
<path fill="none" stroke="black" d="M344.44,-196.21C380.47,-185.96 435.01,-169.98 481.84,-154.25 485.25,-153.11 488.76,-151.89 492.29,-150.64"/>
<polygon fill="#22e7e7" stroke="black" points="493.2,-154.04 501.42,-147.35 490.82,-147.45 493.2,-154.04"/>
</g>
</g>
</svg>
